<svg xmlns="http://www.w3.org/2000/svg" xmlns:xlink="http://www.w3.org/1999/xlink" width="1080" zoomAndPan="magnify" viewBox="0 0 810 809.999993" height="1080" preserveAspectRatio="xMidYMid meet" version="1.0"><path fill="#ffffff" d="M 105.820312 570.449219 L 113.78125 570.449219 L 113.78125 546.417969 L 142.792969 546.417969 L 142.792969 538.601562 L 113.78125 538.601562 L 113.78125 521.578125 L 144.503906 521.578125 L 144.503906 513.6875 L 105.820312 513.6875 Z M 105.820312 570.449219 " fill-opacity="1" fill-rule="nonzero"/><path fill="#ffffff" d="M 203.605469 516.53125 C 199.273438 514.066406 194.320312 512.800781 188.863281 512.800781 C 183.40625 512.800781 178.453125 514.066406 174.117188 516.53125 C 169.769531 519.015625 166.320312 522.542969 163.882812 527.007812 C 161.476562 531.4375 160.242188 536.5 160.242188 542.082031 C 160.242188 547.667969 161.460938 552.730469 163.882812 557.160156 C 166.304688 561.589844 169.75 565.148438 174.117188 567.632812 C 178.453125 570.101562 183.40625 571.367188 188.863281 571.367188 C 194.320312 571.367188 199.273438 570.117188 203.605469 567.632812 C 207.957031 565.132812 211.40625 561.621094 213.84375 557.160156 C 216.246094 552.746094 217.480469 547.667969 217.480469 542.082031 C 217.480469 536.5 216.261719 531.4375 213.84375 527.007812 C 211.40625 522.542969 207.972656 519.03125 203.605469 516.53125 Z M 188.863281 563.535156 C 184.890625 563.535156 181.285156 562.632812 178.167969 560.847656 C 175.035156 559.042969 172.648438 556.574219 170.890625 553.316406 C 169.136719 550.054688 168.234375 546.273438 168.234375 542.082031 C 168.234375 537.890625 169.117188 534.109375 170.890625 530.851562 C 172.648438 527.589844 175.035156 525.125 178.167969 523.320312 C 181.285156 521.53125 184.890625 520.613281 188.863281 520.613281 C 192.832031 520.613281 196.441406 521.515625 199.558594 523.320312 C 202.691406 525.125 205.078125 527.589844 206.851562 530.851562 C 208.605469 534.109375 209.507812 537.890625 209.507812 542.082031 C 209.507812 546.273438 208.621094 550.054688 206.851562 553.316406 C 205.078125 556.574219 202.707031 559.042969 199.574219 560.847656 C 196.457031 562.632812 192.847656 563.535156 188.878906 563.535156 Z M 188.863281 563.535156 " fill-opacity="1" fill-rule="nonzero"/><path fill="#ffffff" d="M 273.25 548.15625 C 273.25 551.226562 272.617188 553.933594 271.382812 556.226562 C 270.148438 558.503906 268.453125 560.246094 266.238281 561.527344 C 261.828125 564.074219 255.292969 564.074219 250.878906 561.527344 C 248.664062 560.246094 246.988281 558.519531 245.738281 556.226562 C 244.488281 553.933594 243.871094 551.226562 243.871094 548.15625 L 243.871094 513.667969 L 235.914062 513.667969 L 235.914062 548.15625 C 235.914062 552.601562 236.878906 556.621094 238.761719 560.101562 C 240.675781 563.628906 243.394531 566.398438 246.84375 568.359375 C 250.261719 570.289062 254.199219 571.269531 258.566406 571.269531 C 262.933594 571.269531 266.855469 570.289062 270.289062 568.359375 C 273.738281 566.414062 276.460938 563.628906 278.375 560.117188 C 280.273438 556.636719 281.222656 552.621094 281.222656 548.171875 L 281.222656 513.6875 L 273.265625 513.6875 L 273.265625 548.171875 Z M 273.25 548.15625 " fill-opacity="1" fill-rule="nonzero"/><path fill="#ffffff" d="M 340.863281 555.765625 L 310.1875 513.6875 L 303.085938 513.6875 L 303.085938 570.449219 L 311.042969 570.449219 L 311.042969 528.222656 L 341.796875 570.449219 L 348.757812 570.449219 L 348.757812 513.6875 L 340.863281 513.6875 Z M 340.863281 555.765625 " fill-opacity="1" fill-rule="nonzero"/><path fill="#ffffff" d="M 405.855469 517.292969 C 401.503906 514.902344 396.488281 513.6875 390.96875 513.6875 L 371.207031 513.6875 L 371.207031 570.449219 L 390.96875 570.449219 C 396.503906 570.449219 401.503906 569.230469 405.855469 566.84375 C 410.238281 564.4375 413.699219 561.035156 416.136719 556.71875 C 418.558594 552.429688 419.792969 547.507812 419.792969 542.050781 C 419.792969 536.59375 418.558594 531.671875 416.136719 527.402344 C 413.699219 523.097656 410.238281 519.679688 405.855469 517.277344 Z M 390.96875 562.554688 L 379.179688 562.554688 L 379.179688 521.578125 L 390.96875 521.578125 C 395.015625 521.578125 398.65625 522.449219 401.820312 524.191406 C 404.9375 525.898438 407.40625 528.320312 409.175781 531.40625 C 410.949219 534.503906 411.835938 538.097656 411.835938 542.066406 C 411.835938 546.039062 410.949219 549.644531 409.207031 552.746094 C 407.453125 555.863281 405.0625 558.21875 401.898438 559.945312 C 398.734375 561.683594 395.066406 562.554688 390.984375 562.554688 Z M 390.96875 562.554688 " fill-opacity="1" fill-rule="nonzero"/><path fill="#ffffff" d="M 455.277344 513.6875 L 429.820312 570.449219 L 438.539062 570.449219 L 444.410156 557.367188 L 473.058594 557.367188 L 478.929688 570.449219 L 487.644531 570.449219 L 462.191406 513.6875 Z M 447.855469 549.472656 L 458.742188 525.265625 L 469.625 549.472656 Z M 447.855469 549.472656 " fill-opacity="1" fill-rule="nonzero"/><path fill="#ffffff" d="M 491.851562 521.578125 L 511.042969 521.578125 L 511.042969 570.449219 L 518.9375 570.449219 L 518.9375 521.578125 L 538.128906 521.578125 L 538.128906 513.6875 L 491.851562 513.6875 Z M 491.851562 521.578125 " fill-opacity="1" fill-rule="nonzero"/><path fill="#ffffff" d="M 554.183594 513.6875 L 562.160156 513.6875 L 562.160156 570.449219 L 554.183594 570.449219 Z M 554.183594 513.6875 " fill-opacity="1" fill-rule="nonzero"/><path fill="#ffffff" d="M 624.539062 516.53125 C 620.203125 514.066406 615.234375 512.800781 609.792969 512.800781 C 604.351562 512.800781 599.382812 514.066406 595.066406 516.53125 C 590.714844 519.015625 587.265625 522.542969 584.828125 527.007812 C 582.410156 531.4375 581.191406 536.5 581.191406 542.082031 C 581.191406 547.667969 582.410156 552.730469 584.828125 557.160156 C 587.265625 561.621094 590.699219 565.148438 595.066406 567.632812 C 599.398438 570.101562 604.351562 571.367188 609.792969 571.367188 C 615.234375 571.367188 620.203125 570.117188 624.539062 567.632812 C 628.890625 565.132812 632.335938 561.621094 634.773438 557.160156 C 637.179688 552.746094 638.414062 547.667969 638.414062 542.082031 C 638.414062 536.5 637.195312 531.4375 634.773438 527.007812 C 632.335938 522.542969 628.90625 519.03125 624.539062 516.53125 Z M 609.792969 563.535156 C 605.824219 563.535156 602.214844 562.632812 599.097656 560.847656 C 595.949219 559.042969 593.578125 556.574219 591.804688 553.316406 C 590.050781 550.070312 589.148438 546.292969 589.148438 542.082031 C 589.148438 537.875 590.035156 534.109375 591.804688 530.851562 C 593.578125 527.589844 595.949219 525.125 599.097656 523.320312 C 602.214844 521.53125 605.824219 520.613281 609.792969 520.613281 C 613.765625 520.613281 617.371094 521.515625 620.488281 523.320312 C 623.636719 525.125 626.007812 527.589844 627.78125 530.851562 C 629.539062 534.109375 630.4375 537.890625 630.4375 542.082031 C 630.4375 546.273438 629.554688 550.054688 627.78125 553.316406 C 626.007812 556.574219 623.636719 559.042969 620.488281 560.847656 C 617.371094 562.632812 613.765625 563.535156 609.792969 563.535156 Z M 609.792969 563.535156 " fill-opacity="1" fill-rule="nonzero"/><path fill="#ffffff" d="M 695.207031 513.6875 L 695.207031 555.765625 L 664.546875 513.6875 L 657.429688 513.6875 L 657.429688 570.449219 L 665.402344 570.449219 L 665.402344 528.222656 L 696.140625 570.449219 L 703.101562 570.449219 L 703.101562 513.6875 Z M 695.207031 513.6875 " fill-opacity="1" fill-rule="nonzero"/><path fill="#ffffff" d="M 65.6875 275.195312 C 65.6875 270.542969 66.570312 266.128906 68.34375 261.96875 C 70.117188 257.808594 72.550781 254.199219 75.667969 251.148438 C 78.769531 248.09375 82.40625 245.65625 86.570312 243.824219 C 90.730469 241.988281 95.128906 241.085938 99.792969 241.085938 L 229.21875 241.085938 C 233.871094 241.085938 238.285156 242.003906 242.445312 243.824219 C 246.605469 245.65625 250.246094 248.09375 253.347656 251.148438 C 256.449219 254.199219 258.898438 257.808594 260.671875 261.96875 C 262.441406 266.128906 263.328125 270.527344 263.328125 275.195312 L 263.328125 305.964844 L 229.21875 305.964844 L 229.21875 275.195312 L 99.777344 275.195312 L 99.777344 445.546875 L 229.203125 445.546875 L 229.203125 414.933594 L 263.3125 414.933594 L 263.3125 445.546875 C 263.3125 450.199219 262.425781 454.613281 260.65625 458.773438 C 258.882812 462.933594 256.429688 466.574219 253.332031 469.671875 C 250.230469 472.773438 246.589844 475.226562 242.429688 477 C 238.269531 478.769531 233.871094 479.65625 229.203125 479.65625 L 99.777344 479.65625 C 95.128906 479.65625 90.714844 478.769531 86.554688 477 C 82.390625 475.226562 78.753906 472.789062 75.652344 469.671875 C 72.550781 466.574219 70.101562 462.933594 68.328125 458.773438 C 66.554688 454.613281 65.671875 450.214844 65.671875 445.546875 L 65.671875 275.195312 Z M 65.6875 275.195312 " fill-opacity="1" fill-rule="nonzero"/><path fill="#ffffff" d="M 593.355469 377.503906 C 588.707031 377.503906 584.292969 376.585938 580.128906 374.765625 C 575.96875 372.933594 572.332031 370.496094 569.230469 367.441406 C 566.128906 364.390625 563.675781 360.78125 561.90625 356.621094 C 560.132812 352.460938 559.246094 348.0625 559.246094 343.394531 L 559.246094 275.195312 C 559.246094 270.542969 560.132812 266.128906 561.90625 261.96875 C 563.675781 257.808594 566.113281 254.199219 569.230469 251.148438 C 572.332031 248.09375 575.96875 245.65625 580.128906 243.824219 C 584.292969 241.988281 588.691406 241.085938 593.355469 241.085938 L 709.144531 241.085938 C 713.796875 241.085938 718.210938 242.003906 722.371094 243.824219 C 726.53125 245.65625 730.171875 248.09375 733.269531 251.148438 C 736.371094 254.199219 738.824219 257.808594 740.597656 261.96875 C 742.367188 266.128906 743.253906 270.527344 743.253906 275.195312 L 743.253906 305.964844 L 709.144531 305.964844 L 709.144531 275.195312 L 593.355469 275.195312 L 593.355469 343.394531 L 709.144531 343.394531 C 713.796875 343.394531 718.210938 344.28125 722.371094 346.054688 C 726.53125 347.824219 730.171875 350.277344 733.269531 353.378906 C 736.371094 356.480469 738.824219 360.117188 740.597656 364.277344 C 742.367188 368.4375 743.253906 372.851562 743.253906 377.503906 L 743.253906 445.546875 C 743.253906 450.199219 742.367188 454.613281 740.597656 458.773438 C 738.824219 462.933594 736.386719 466.574219 733.269531 469.671875 C 730.171875 472.773438 726.53125 475.226562 722.371094 477 C 718.210938 478.769531 713.796875 479.65625 709.144531 479.65625 L 590.035156 479.65625 C 585.367188 479.65625 580.96875 478.769531 576.808594 477 C 572.648438 475.226562 569.007812 472.789062 565.910156 469.671875 C 562.808594 466.574219 560.355469 462.933594 558.582031 458.773438 C 556.8125 454.613281 555.925781 450.214844 555.925781 445.546875 L 555.925781 414.933594 L 590.035156 414.933594 L 590.035156 445.546875 L 709.144531 445.546875 L 709.144531 377.503906 Z M 593.355469 377.503906 " fill-opacity="1" fill-rule="nonzero"/><path fill="#ffffff" d="M 426.878906 238.664062 L 392.359375 238.664062 L 299.226562 480.179688 L 388.832031 480.179688 C 376.222656 473.851562 366.746094 461.953125 363.976562 447.351562 C 363.488281 444.742188 364.167969 442.066406 365.859375 440.027344 C 367.523438 438.015625 369.972656 436.863281 372.585938 436.863281 L 373.011719 436.863281 C 376.980469 436.863281 380.398438 439.820312 381.144531 443.886719 C 383.640625 457.648438 395.617188 467.617188 409.605469 467.617188 C 423.589844 467.617188 435.566406 457.632812 438.0625 443.886719 C 438.808594 439.820312 442.476562 436.863281 446.796875 436.863281 C 449.34375 436.863281 451.75 437.984375 453.394531 439.945312 C 455.054688 441.957031 455.75 444.582031 455.261719 447.160156 C 452.539062 461.859375 443.046875 473.820312 430.390625 480.164062 L 520.011719 480.164062 L 426.878906 238.648438 Z M 458.789062 419.03125 C 457.824219 420.441406 456.382812 421.246094 454.832031 421.246094 L 454.21875 421.136719 L 424.585938 410.472656 C 423.984375 410.664062 423.382812 411.613281 423.382812 412.832031 L 423.382812 429.996094 C 423.382812 439.503906 417.214844 447.257812 409.621094 447.257812 C 402.027344 447.257812 395.855469 439.519531 395.855469 429.996094 L 395.855469 412.832031 C 395.855469 411.613281 395.253906 410.664062 394.652344 410.472656 L 364.40625 421.246094 C 362.855469 421.246094 361.414062 420.441406 360.464844 419.03125 C 359.230469 417.230469 358.960938 414.777344 359.785156 412.640625 L 405 295.761719 C 405.757812 293.816406 407.5625 292.566406 409.621094 292.566406 C 411.675781 292.566406 413.496094 293.832031 414.238281 295.761719 L 459.46875 412.640625 C 460.292969 414.777344 460.039062 417.214844 458.789062 419.03125 Z M 458.789062 419.03125 " fill-opacity="1" fill-rule="nonzero"/></svg>